HIERARCHY
ROOT root
{
	OFFSET 0.000000 0.000000 0.000000
	CHANNELS 6 Xposition Yposition Zposition Zrotation Yrotation Xrotation
	JOINT lhip
	{
		OFFSET 0.058581 -0.082280 -0.017664
		CHANNELS 3 Zrotation Yrotation Xrotation
		JOINT lknee
		{
			OFFSET 0.043451 -0.386469 0.008037
			CHANNELS 3 Zrotation Yrotation Xrotation
			JOINT lankle
			{
				OFFSET -0.014790 -0.426874 -0.037428
				CHANNELS 3 Zrotation Yrotation Xrotation
				JOINT ltoe
				{
					OFFSET 0.041054 -0.060286 0.122042
					CHANNELS 3 Zrotation Yrotation Xrotation
					End Site
					{
						OFFSET 0.000000 0.000000 0.000000
					}
				}
			}
		}
	}
	JOINT rhip
	{
		OFFSET -0.060310 -0.090513 -0.013543
		CHANNELS 3 Zrotation Yrotation Xrotation
		JOINT rknee
		{
			OFFSET -0.043257 -0.383688 -0.004843
			CHANNELS 3 Zrotation Yrotation Xrotation
			JOINT rankle
			{
				OFFSET 0.019056 -0.420046 -0.034562
				CHANNELS 3 Zrotation Yrotation Xrotation
				JOINT rtoe
				{
					OFFSET -0.034840 -0.062106 0.130323
					CHANNELS 3 Zrotation Yrotation Xrotation
					End Site
					{
						OFFSET 0.000000 0.000000 0.000000
					}
				}
			}
		}
	}
	JOINT lowerback
	{
		OFFSET 0.004439 0.124404 -0.038385
		CHANNELS 3 Zrotation Yrotation Xrotation
		JOINT upperback
		{
			OFFSET 0.004488 0.137956 0.026820
			CHANNELS 3 Zrotation Yrotation Xrotation
			JOINT chest
			{
				OFFSET -0.002265 0.056032 0.002855
				CHANNELS 3 Zrotation Yrotation Xrotation
				JOINT lowerneck
				{
					OFFSET -0.013390 0.211636 -0.033468
					CHANNELS 3 Zrotation Yrotation Xrotation
					JOINT upperneck
					{
						OFFSET 0.010113 0.088937 0.050410
						CHANNELS 3 Zrotation Yrotation Xrotation
						End Site
						{
							OFFSET 0.000000 0.000000 0.000000
						}
					}
				}
				JOINT lclavicle
				{
					OFFSET 0.071702 0.114000 -0.018898
					CHANNELS 3 Zrotation Yrotation Xrotation
					JOINT lshoulder
					{
						OFFSET 0.122921 0.045205 -0.019046
						CHANNELS 3 Zrotation Yrotation Xrotation
						JOINT lelbow
						{
							OFFSET 0.255332 -0.015649 -0.022946
							CHANNELS 3 Zrotation Yrotation Xrotation
							JOINT lwrist
							{
								OFFSET 0.265709 0.012698 -0.007375
								CHANNELS 3 Zrotation Yrotation Xrotation
								End Site
								{
									OFFSET 0.000000 0.000000 0.000000
								}
							}
						}
					}
				}
				JOINT rclavicle
				{
					OFFSET -0.082954 0.112472 -0.023707
					CHANNELS 3 Zrotation Yrotation Xrotation
					JOINT rshoulder
					{
						OFFSET -0.113228 0.046853 -0.008472
						CHANNELS 3 Zrotation Yrotation Xrotation
						JOINT relbow
						{
							OFFSET -0.260127 -0.014369 -0.031269
							CHANNELS 3 Zrotation Yrotation Xrotation
							JOINT rwrist
							{
								OFFSET -0.269108 0.006794 -0.006027
								CHANNELS 3 Zrotation Yrotation Xrotation
								End Site
								{
									OFFSET 0.000000 0.000000 0.000000
								}
							}
						}
					}
				}
			}
		}
	}
}
MOTION
Frames: 7
Frame Time: 0.033333
-0.151804 -1.898236 1.007938 -87.162648 0.779710 93.340344 -0.268403 0.556752 -2.233037 -4.192232 -6.723085 -5.057737 -0.393303 7.250447 -10.321342 0.000000 -0.000000 0.000000 4.057621 -0.083457 -14.947295 3.169390 -8.074455 20.780298 5.289555 -6.737876 -16.502077 0.000000 -0.000000 0.000000 0.905080 -0.270565 11.443070 0.991515 -1.135502 -6.077294 1.202224 -1.627658 -1.276063 4.511349 1.434283 -3.600350 2.579417 -4.144468 10.796608 -21.435918 0.148473 1.996000 -58.030974 -7.494838 5.547902 15.419751 -19.469386 -3.189727 -11.718957 -6.682615 -6.080801 17.073449 3.424752 3.416340 51.227306 6.651205 15.973676 -7.945654 31.959111 29.488099 34.972234 0.799728 2.085586 
-0.152244 -1.896259 1.008521 -87.619783 1.133392 93.298258 0.373628 1.418557 -2.351259 -4.277764 -6.710302 -4.713597 0.029131 7.299007 -9.905605 0.000000 -0.000000 0.000000 4.522631 -2.287516 -12.045585 4.385426 -6.511270 15.119559 4.859457 -5.935057 -14.331016 0.000000 -0.000000 0.000000 2.260664 0.554199 11.973192 0.254100 -1.095164 -7.283945 0.533791 -1.870167 -0.897911 4.542298 0.787612 -2.095399 2.588961 -3.898727 9.785336 -21.194560 -0.004260 2.330448 -56.865476 -7.543887 6.862702 11.452375 -19.413445 -2.941844 4.859524 -7.074437 -7.636031 16.732036 3.906144 3.294601 55.451143 6.255158 16.465639 -4.617521 26.190207 14.304094 2.945579 5.795157 -3.515838 
-0.152898 -1.894582 1.008843 -87.916055 1.218618 93.456233 0.583895 1.478449 -2.724295 -4.289109 -6.726896 -4.496604 0.059547 7.409677 -9.366310 0.000000 -0.000000 0.000000 4.318412 -4.085492 -10.350431 5.439438 -5.387728 11.444591 5.298019 -4.979436 -12.190114 0.000000 -0.000000 0.000000 1.989704 0.538260 11.358003 0.385287 -1.058957 -7.106097 0.949004 -1.545920 -0.857167 4.053310 0.289097 -1.050564 2.428571 -3.306311 9.654841 -22.195234 0.080071 2.104965 -56.184581 -7.261934 6.605864 10.950380 -19.344923 -2.560719 5.464035 -6.777418 -7.286040 17.407419 4.221054 3.482183 54.916094 6.526367 15.589501 -3.444205 25.133557 12.776461 -0.023539 6.574547 -3.440293 
-0.154897 -1.892678 1.009438 -88.018040 0.943616 93.393017 0.384571 1.380016 -2.705762 -4.271847 -6.945917 -4.476391 -0.001799 7.401747 -8.866139 0.000000 -0.000000 0.000000 3.683662 -4.997958 -10.381182 5.744544 -5.500594 11.674852 6.212807 -3.486256 -11.591141 0.000000 -0.000000 0.000000 1.096621 0.468606 10.733180 0.581366 -1.180856 -6.061973 0.929534 -0.428378 -1.005159 4.495047 0.969625 -0.843443 3.043234 -4.235589 8.962530 -22.387199 0.454527 1.230321 -55.840284 -7.394045 7.271448 11.289306 -18.961804 -2.713607 6.784665 -6.943718 -5.758616 18.945700 3.326648 2.436180 54.769182 6.123988 14.667970 -3.708958 24.577894 12.295638 -0.375493 7.122432 -1.239390 
-0.155746 -1.892042 1.009463 -88.027169 0.816133 93.316310 0.266436 1.263662 -2.585392 -4.270310 -6.819545 -4.526060 0.089019 7.436097 -8.913698 0.000000 -0.000000 0.000000 3.619246 -4.848255 -10.338104 5.592217 -5.476988 11.746777 6.175633 -3.523469 -11.570183 0.000000 -0.000000 0.000000 0.831513 0.475377 10.581573 0.611163 -1.155642 -5.771537 0.861981 -0.241802 -1.031403 4.642235 1.051061 -0.773275 3.181057 -4.496604 8.766085 -22.404795 0.658195 1.148067 -55.599047 -7.609234 7.484592 10.832842 -18.957969 -2.910074 6.334832 -7.343835 -6.614985 19.412217 2.974461 2.089133 54.876488 6.071969 14.724717 -4.097274 24.375300 12.063855 -0.092056 7.177050 -0.740755 
-0.157186 -1.890411 1.009400 -88.091457 0.665606 93.274476 0.197108 1.271507 -2.569245 -4.332539 -6.742124 -4.469607 0.314141 7.388381 -9.058295 0.000000 -0.000000 0.000000 3.364044 -5.233443 -10.339260 5.815081 -5.553389 11.840945 6.235281 -2.979600 -11.219350 0.000000 -0.000000 0.000000 0.444349 0.657891 10.298884 0.660539 -1.100218 -5.288484 0.806148 -0.032926 -1.242575 4.693799 0.897676 -0.391081 3.360483 -4.842561 8.268204 -22.569045 0.939048 0.990846 -54.998324 -7.738336 7.834303 10.719900 -19.057781 -2.997018 5.583290 -7.658060 -7.052044 20.322006 2.426406 1.386888 54.747286 5.673576 14.767312 -4.422757 24.358821 12.065865 0.691447 7.073968 -0.014101 
-0.158405 -1.889773 1.009284 -88.008530 0.596760 93.187608 0.141315 1.307719 -2.525789 -4.344658 -6.868290 -4.314461 0.525847 7.457472 -9.286419 0.000000 -0.000000 0.000000 3.214517 -5.484876 -10.239317 6.003245 -5.382461 11.911431 6.342241 -2.852692 -11.185763 0.000000 -0.000000 0.000000 0.042013 0.745614 10.114296 0.822311 -1.190276 -4.989143 0.945988 -0.071323 -1.333085 4.873584 1.056872 -0.311884 3.290005 -4.918606 8.254877 -22.636166 1.200074 0.799622 -54.718828 -7.755982 7.743367 10.506697 -19.126427 -3.002238 4.492534 -7.694183 -7.160732 20.762568 2.291147 1.204392 54.358582 5.526424 14.872645 -4.322505 24.807059 12.191477 1.578183 6.768042 0.080855 
